<?xml version="1.0" encoding="utf-8"?>
<!DOCTYPE svg PUBLIC "-//W3C//DTD SVG 1.1//EN" "http://www.w3.org/Graphics/SVG/1.1/DTD/svg11.dtd">
<svg fill="#FFFFFF"  version="1.1" xmlns="http://www.w3.org/2000/svg" xmlns:xlink="http://www.w3.org/1999/xlink" x="0px" y="0px" width="48" height="48">

  <defs>
    <style>
      g {
        display: none;
      }
      g:target {
        display: inline;
      }
    </style>
  </defs>

  <g id='icon-menu'>
    <svg fill="#FFFFFF" height="48" viewBox="0 0 24 24" width="48">
      <path d="M0 0h24v24H0z" fill="none"/>
      <path d="M3 18h18v-2H3v2zm0-5h18v-2H3v2zm0-7v2h18V6H3z"/>
    </svg>
  </g>

  <g id='icon-home'>
    <svg fill="#FFFFFF" height="48" viewBox="0 0 24 24" width="48">
      <path d="M10 20v-6h4v6h5v-8h3L12 3 2 12h3v8z"/>
      <path d="M0 0h24v24H0z" fill="none"/>
    </svg>
  </g>

  <g id='icon-dashboard'>
    <svg fill="#FFFFFF" height="48" viewBox="0 0 24 24">
        <path d="M0 0h24v24H0z" fill="none"/>
        <path d="M3 13h8V3H3v10zm0 8h8v-6H3v6zm10 0h8V11h-8v10zm0-18v6h8V3h-8z"/>
    </svg>
  </g>

  <g id='icon-modulos'>
    <svg fill="#FFFFFF" height="48" viewBox="0 0 24 24" width="48">
      <path d="M13 13v8h8v-8h-8zM3 21h8v-8H3v8zM3 3v8h8V3H3zm13.66-1.31L11 7.34 16.66 13l5.66-5.66-5.66-5.65z"/>
      <path d="M0 0h24v24H0z" fill="none"/>
    </svg>
  </g>

  <g id='icon-schedule'>
    <svg fill="#FFFFFF" height="48" viewBox="0 0 24 24" width="48">
      <path d="M11.99 2C6.47 2 2 6.48 2 12s4.47 10 9.99 10C17.52 22 22 17.52 22 12S17.52 2 11.99 2zM12 20c-4.42 0-8-3.58-8-8s3.58-8 8-8 8 3.58 8 8-3.58 8-8 8z"/>
      <path d="M0 0h24v24H0z" fill="none"/>
      <path d="M12.5 7H11v6l5.25 3.15.75-1.23-4.5-2.67z"/>
    </svg>
  </g>

  <g id='icon-notifications'>
    <svg fill="#FFFFFF" height="48" viewBox="0 0 24 24" width="48">
        <path d="M12 22c1.1 0 2-.9 2-2h-4c0 1.1.89 2 2 2zm6-6v-5c0-3.07-1.64-5.64-4.5-6.32V4c0-.83-.67-1.5-1.5-1.5s-1.5.67-1.5 1.5v.68C7.63 5.36 6 7.92 6 11v5l-2 2v1h16v-1l-2-2z"/>
    </svg>
  </g>

  <g id='icon-search'>
    <svg fill="#FFFFFF" height="48" viewBox="0 0 24 24" width="48">
        <path d="M15.5 14h-.79l-.28-.27C15.41 12.59 16 11.11 16 9.5 16 5.91 13.09 3 9.5 3S3 5.91 3 9.5 5.91 16 9.5 16c1.61 0 3.09-.59 4.23-1.57l.27.28v.79l5 4.99L20.49 19l-4.99-5zm-6 0C7.01 14 5 11.99 5 9.5S7.01 5 9.5 5 14 7.01 14 9.5 11.99 14 9.5 14z"/>
        <path d="M0 0h24v24H0z" fill="none"/>
    </svg>
  </g>

  <g id='icon-tag'>
    <svg fill="#FFFFFF" height="48" viewBox="0 0 24 24">
        <path d="M0 0h24v24H0z" fill="none"/>
        <path d="M17.63 5.84C17.27 5.33 16.67 5 16 5L5 5.01C3.9 5.01 3 5.9 3 7v10c0 1.1.9 1.99 2 1.99L16 19c.67 0 1.27-.33 1.63-.84L22 12l-4.37-6.16z"/>
    </svg>
  </g>

  <g id='icon-settings'>
    <svg fill="#FFFFFF" height="48" viewBox="0 0 24 24" width="48">
        <path d="M0 0h24v24H0z" fill="none"/>
        <path d="M19.43 12.98c.04-.32.07-.64.07-.98s-.03-.66-.07-.98l2.11-1.65c.19-.15.24-.42.12-.64l-2-3.46c-.12-.22-.39-.3-.61-.22l-2.49 1c-.52-.4-1.08-.73-1.69-.98l-.38-2.65C14.46 2.18 14.25 2 14 2h-4c-.25 0-.46.18-.49.42l-.38 2.65c-.61.25-1.17.59-1.69.98l-2.49-1c-.23-.09-.49 0-.61.22l-2 3.46c-.13.22-.07.49.12.64l2.11 1.65c-.04.32-.07.65-.07.98s.03.66.07.98l-2.11 1.65c-.19.15-.24.42-.12.64l2 3.46c.12.22.39.3.61.22l2.49-1c.52.4 1.08.73 1.69.98l.38 2.65c.03.24.24.42.49.42h4c.25 0 .46-.18.49-.42l.38-2.65c.61-.25 1.17-.59 1.69-.98l2.49 1c.23.09.49 0 .61-.22l2-3.46c.12-.22.07-.49-.12-.64l-2.11-1.65zM12 15.5c-1.93 0-3.5-1.57-3.5-3.5s1.57-3.5 3.5-3.5 3.5 1.57 3.5 3.5-1.57 3.5-3.5 3.5z"/>
    </svg>
  </g>
  
  <g id='icon-kanban-modulo'>
    <svg fill="#FFFFFF" height="48" viewBox="0 0 24 24" width="48">
        <path d="M4 11h5V5H4v6zm0 7h5v-6H4v6zm6 0h5v-6h-5v6zm6 0h5v-6h-5v6zm-6-7h5V5h-5v6zm6-6v6h5V5h-5z"/>
        <path d="M0 0h24v24H0z" fill="none"/>
    </svg>
  </g>
  
  <g id='icon-projeto'>
    <svg fill="#FFFFFF" height="48" viewBox="0 0 24 24" width="48" >
    <path d="M0 0h24v24H0z" fill="none"/>
    <path d="M13 3H6v18h4v-6h3c3.31 0 6-2.69 6-6s-2.69-6-6-6zm.2 8H10V7h3.2c1.1 0 2 .9 2 2s-.9 2-2 2z"/>
</svg>
  </g>

  <g id='icon-share'>
    <svg fill="#FFFFFF" height="48" viewBox="0 0 24 24" width="48">
        <path d="M0 0h24v24H0z" fill="none"/>
        <path d="M18 16.08c-.76 0-1.44.3-1.96.77L8.91 12.7c.05-.23.09-.46.09-.7s-.04-.47-.09-.7l7.05-4.11c.54.5 1.25.81 2.04.81 1.66 0 3-1.34 3-3s-1.34-3-3-3-3 1.34-3 3c0 .24.04.47.09.7L8.04 9.81C7.5 9.31 6.79 9 6 9c-1.66 0-3 1.34-3 3s1.34 3 3 3c.79 0 1.5-.31 2.04-.81l7.12 4.16c-.05.21-.08.43-.08.65 0 1.61 1.31 2.92 2.92 2.92 1.61 0 2.92-1.31 2.92-2.92s-1.31-2.92-2.92-2.92z"/>
    </svg>
  </g>

  <g id='icon-note'>
    <svg fill="#FFFFFF" height="48" viewBox="0 0 24 24" width="48">
        <path d="M22 10l-6-6H4c-1.1 0-2 .9-2 2v12.01c0 1.1.9 1.99 2 1.99l16-.01c1.1 0 2-.89 2-1.99v-8zm-7-4.5l5.5 5.5H15V5.5z"/>
        <path d="M0 0h24v24H0V0z" fill="none"/>
    </svg>
  
  
  </g>
  <g id='icon-pasta'>
    <svg fill="#FFFFFF" height="48" viewBox="0 0 24 24" width="48">
        <path d="M20 4H4c-1.1 0-1.99.9-1.99 2L2 18c0 1.1.9 2 2 2h16c1.1 0 2-.9 2-2V6c0-1.1-.9-2-2-2zm-5 14H4v-4h11v4zm0-5H4V9h11v4zm5 5h-4V9h4v9z"/>
        <path d="M0 0h24v24H0z" fill="none"/>
    </svg>
  </g>
  
  <g id='icon-modfuc'>
    <svg fill="#FFFFFF" height="48" viewBox="0 0 24 24" width="48" >
        <path d="M20 4H4c-1.1 0-1.99.9-1.99 2L2 18c0 1.1.9 2 2 2h16c1.1 0 2-.9 2-2V6c0-1.1-.9-2-2-2zm-5 14H4v-4h11v4zm0-5H4V9h11v4zm5 5h-4V9h4v9z"/>
        <path d="M0 0h24v24H0z" fill="none"/>
    </svg>
  </g>
  
  <g id='icon-funcionalidade'>
    <svg fill="#FFFFFF" height="48" viewBox="0 0 24 24" width="48">
        <path d="M3 9h4V5H3v4zm0 5h4v-4H3v4zm5 0h4v-4H8v4zm5 0h4v-4h-4v4zM8 9h4V5H8v4zm5-4v4h4V5h-4zm5 9h4v-4h-4v4zM3 19h4v-4H3v4zm5 0h4v-4H8v4zm5 0h4v-4h-4v4zm5 0h4v-4h-4v4zm0-14v4h4V5h-4z"/>
        <path d="M0 0h24v24H0z" fill="none"/>
    </svg>
  </g>

  <g id='icon-build'>
    <svg fill="#FFFFFF" height="48" viewBox="0 0 24 24" >
        <path clip-rule="evenodd" d="M0 0h24v24H0z" fill="none"/>
        <path d="M22.7 19l-9.1-9.1c.9-2.3.4-5-1.5-6.9-2-2-5-2.4-7.4-1.3L9 6 6 9 1.6 4.7C.4 7.1.9 10.1 2.9 12.1c1.9 1.9 4.6 2.4 6.9 1.5l9.1 9.1c.4.4 1 .4 1.4 0l2.3-2.3c.5-.4.5-1.1.1-1.4z"/>
    </svg>
  </g>

  <g id='icon-business'>
    <svg fill="#FFFFFF" height="48" viewBox="0 0 24 24" width="48">
        <path d="M0 0h24v24H0zm10 5h4v2h-4zm0 0h4v2h-4z" fill="none"/>
        <path d="M10 16v-1H3.01L3 19c0 1.11.89 2 2 2h14c1.11 0 2-.89 2-2v-4h-7v1h-4zm10-9h-4.01V5l-2-2h-4l-2 2v2H4c-1.1 0-2 .9-2 2v3c0 1.11.89 2 2 2h6v-2h4v2h6c1.1 0 2-.9 2-2V9c0-1.1-.9-2-2-2zm-6 0h-4V5h4v2z"/>
    </svg>
  </g>

  <g id='icon-integration'>
    <svg fill="#FFFFFF" height="48" viewBox="0 0 24 24" width="48">
      <path d="M0 0h24v24H0V0z" fill="none"/>
      <path d="M17 16l-4-4V8.82C14.16 8.4 15 7.3 15 6c0-1.66-1.34-3-3-3S9 4.34 9 6c0 1.3.84 2.4 2 2.82V12l-4 4H3v5h5v-3.05l4-4.2 4 4.2V21h5v-5h-4z"/>
      <path d="M0 0h24v24H0z" fill="none"/>
    </svg>as.sortable
  </g>

  <g id='icon-add'>
    <svg fill="#FFFFFF" height="48" viewBox="0 0 24 24" width="48">
        <path d="M19 13h-6v6h-2v-6H5v-2h6V5h2v6h6v2z"/>
        <path d="M0 0h24v24H0z" fill="none"/>
    </svg>
  </g>

  <g id='icon-arrow-drop-down'>
    <svg fill="#FFFFFF" height="48" viewBox="0 0 24 24" width="48">
        <path d="M7 10l5 5 5-5z"/>
        <path d="M0 0h24v24H0z" fill="none"/>
    </svg>
  </g>

  <g id="icon-eye-visibility">
    <svg height="48" viewBox="0 0 24 24" width="48" >
      <path d="M0 0h24v24H0z" fill="none"/>
      <path d="M12 4.5C7 4.5 2.73 7.61 1 12c1.73 4.39 6 7.5 11 7.5s9.27-3.11 11-7.5c-1.73-4.39-6-7.5-11-7.5zM12 17c-2.76 0-5-2.24-5-5s2.24-5 5-5 5 2.24 5 5-2.24 5-5 5zm0-8c-1.66 0-3 1.34-3 3s1.34 3 3 3 3-1.34 3-3-1.34-3-3-3z"/>
    </svg>
  </g>

  <g id="icon-visibility-off">
    <svg  height="48" viewBox="0 0 24 24" width="48" >
      <path d="M0 0h24v24H0zm0 0h24v24H0zm0 0h24v24H0zm0 0h24v24H0z" fill="none"/>
      <path d="M12 7c2.76 0 5 2.24 5 5 0 .65-.13 1.26-.36 1.83l2.92 2.92c1.51-1.26 2.7-2.89 3.43-4.75-1.73-4.39-6-7.5-11-7.5-1.4 0-2.74.25-3.98.7l2.16 2.16C10.74 7.13 11.35 7 12 7zM2 4.27l2.28 2.28.46.46C3.08 8.3 1.78 10.02 1 12c1.73 4.39 6 7.5 11 7.5 1.55 0 3.03-.3 4.38-.84l.42.42L19.73 22 21 20.73 3.27 3 2 4.27zM7.53 9.8l1.55 1.55c-.05.21-.08.43-.08.65 0 1.66 1.34 3 3 3 .22 0 .44-.03.65-.08l1.55 1.55c-.67.33-1.41.53-2.2.53-2.76 0-5-2.24-5-5 0-.79.2-1.53.53-2.2zm4.31-.78l3.15 3.15.02-.16c0-1.66-1.34-3-3-3l-.17.01z"/>
    </svg>
  </g>
</svg>